<svg width="810" height="764" viewBox="0 0 810 764" fill="none" xmlns="http://www.w3.org/2000/svg">
<path d="M429.582 22.2511C428.21 22.0799 427.001 21.6667 425.955 21.0114C424.91 20.3467 424.127 19.4809 423.607 18.4141C423.088 17.3379 422.927 16.0964 423.123 14.6896C423.296 13.4516 423.68 12.4786 424.276 11.7705C424.874 11.053 425.612 10.5248 426.491 10.186C427.37 9.8472 428.318 9.63148 429.335 9.53885C430.362 9.43802 431.388 9.38466 432.412 9.37879C433.751 9.37408 434.835 9.38051 435.664 9.39808C436.504 9.40745 437.127 9.32772 437.533 9.1589C437.949 8.99125 438.194 8.64013 438.269 8.10555L438.284 7.993C438.478 6.60496 438.248 5.47893 437.594 4.61493C436.95 3.7521 435.862 3.22515 434.33 3.03408C432.742 2.83598 431.449 3.02767 430.45 3.60917C429.451 4.19066 428.713 4.85245 428.236 5.59455L425.236 4.07524C425.983 2.83255 426.878 1.90405 427.92 1.28974C428.972 0.667211 430.078 0.280326 431.237 0.129079C432.406 -0.0303742 433.536 -0.042112 434.626 0.0938639C435.322 0.180607 436.108 0.364652 436.987 0.646C437.876 0.919142 438.708 1.36169 439.483 1.97363C440.268 2.58676 440.87 3.43962 441.292 4.53223C441.713 5.62484 441.803 7.0293 441.564 8.7456L439.576 22.9825L436.249 22.5675L436.658 19.6413L436.489 19.6202C436.198 20.0611 435.752 20.5159 435.151 20.9849C434.55 21.4538 433.786 21.8213 432.86 22.0875C431.934 22.3536 430.841 22.4081 429.582 22.2511ZM430.506 19.3319C431.821 19.496 432.966 19.3765 433.94 18.9732C434.924 18.571 435.703 17.9907 436.277 17.2322C436.861 16.4749 437.216 15.646 437.341 14.7457L437.766 11.707C437.601 11.8582 437.269 11.9743 436.771 12.0552C436.282 12.1279 435.721 12.1771 435.086 12.2029C434.462 12.2205 433.854 12.2305 433.261 12.2328C432.679 12.227 432.206 12.2252 431.842 12.2276C430.962 12.2323 430.128 12.3143 429.341 12.4738C428.564 12.625 427.911 12.9205 427.381 13.3601C426.862 13.7915 426.544 14.4293 426.426 15.2734C426.265 16.4269 426.571 17.3525 427.343 18.05C428.127 18.7394 429.181 19.1667 430.506 19.3319Z" fill="white"/>
<path d="M528.572 24.0276L525.418 23.835C525.421 23.3051 525.334 22.7589 525.156 22.1965C524.991 21.6283 524.67 21.0962 524.193 20.6C523.715 20.1038 523.016 19.6959 522.094 19.3762C520.833 18.9385 519.67 18.8607 518.607 19.1427C517.555 19.419 516.86 19.9941 516.52 20.868C516.219 21.6448 516.267 22.3576 516.664 23.0064C517.062 23.6553 517.811 24.3408 518.911 25.0631L521.683 26.8662C523.354 27.947 524.465 29.0987 525.016 30.3214C525.57 31.5353 525.571 32.8529 525.019 34.2741C524.566 35.4393 523.822 36.3629 522.785 37.0451C521.758 37.7303 520.537 38.1282 519.124 38.2388C517.71 38.3494 516.203 38.1269 514.601 37.5713C512.499 36.8419 510.934 35.7879 509.906 34.4095C508.878 33.0311 508.516 31.4132 508.821 29.5558L512.115 29.8573C511.976 31.0512 512.199 32.0599 512.783 32.8835C513.375 33.7101 514.32 34.3485 515.617 34.7986C517.094 35.3107 518.386 35.4084 519.493 35.0916C520.614 34.769 521.343 34.1708 521.683 33.2969C521.957 32.5907 521.936 31.9124 521.62 31.2619C521.308 30.6025 520.679 29.9737 519.734 29.3753L516.607 27.3889C514.891 26.2926 513.77 25.1273 513.244 23.8932C512.731 22.6533 512.746 21.3316 513.292 19.928C513.737 18.7805 514.458 17.8786 515.454 17.2225C516.459 16.5695 517.627 16.1885 518.959 16.0795C520.299 15.9737 521.694 16.1722 523.144 16.675C525.183 17.3828 526.613 18.3797 527.434 19.666C528.263 20.9553 528.642 22.4092 528.572 24.0276Z" fill="white"/>
<path d="M600.88 49.5411L599.359 51.9406L589.125 46.1458L590.645 43.7462L600.88 49.5411ZM582.031 63.9103L595.323 42.9384C595.992 41.8826 596.805 41.1474 597.762 40.7328C598.719 40.3182 599.717 40.1659 600.756 40.2759C601.795 40.3859 602.768 40.6975 603.674 41.2107C604.391 41.6166 604.941 42.0039 605.323 42.3725C605.705 42.7411 605.977 43.0364 606.139 43.2583L603.747 45.2299C603.629 45.098 603.461 44.9213 603.243 44.7C603.033 44.4834 602.718 44.2561 602.298 44.0182C601.334 43.4723 600.488 43.314 599.76 43.5433C599.041 43.7772 598.392 44.3501 597.814 45.2619L584.948 65.562L582.031 63.9103Z" fill="white"/>
<path d="M654.806 84.5149L652.909 86.6298L643.73 79.2761L645.627 77.1612L654.806 84.5149ZM633.809 95.6067L650.386 77.1219C651.221 76.1913 652.146 75.5993 653.16 75.346C654.175 75.0927 655.187 75.1041 656.197 75.38C657.207 75.656 658.118 76.1196 658.931 76.7709C659.574 77.286 660.054 77.7558 660.372 78.1801C660.69 78.6045 660.911 78.9389 661.035 79.1833L658.346 80.7367C658.251 80.5878 658.114 80.3869 657.934 80.134C657.762 79.887 657.488 79.6125 657.111 79.3105C656.246 78.6178 655.435 78.3255 654.678 78.4335C653.928 78.5475 653.192 79.0063 652.472 79.81L636.425 97.7027L633.809 95.6067Z" fill="white"/>
<path d="M702.008 127.347L699.793 129.126L691.93 120.379L694.145 118.6L702.008 127.347ZM679.488 134.881L698.848 119.335C699.823 118.552 700.832 118.118 701.874 118.033C702.916 117.948 703.913 118.123 704.865 118.56C705.816 118.996 706.64 119.602 707.337 120.376C707.887 120.989 708.285 121.53 708.53 122.001C708.775 122.471 708.938 122.837 709.021 123.098L706.116 124.194C706.046 124.032 705.943 123.811 705.807 123.533C705.677 123.261 705.451 122.946 705.128 122.586C704.387 121.762 703.634 121.342 702.87 121.326C702.111 121.317 701.311 121.65 700.469 122.326L681.73 137.374L679.488 134.881Z" fill="white"/>
<path d="M741.197 176.901L738.727 178.304L732.419 168.377L734.889 166.974L741.197 176.901ZM717.805 180.719L739.397 168.461C740.484 167.844 741.548 167.577 742.587 167.662C743.627 167.746 744.579 168.081 745.445 168.666C746.31 169.252 747.022 169.984 747.58 170.863C748.022 171.558 748.325 172.159 748.489 172.664C748.653 173.169 748.755 173.557 748.793 173.829L745.755 174.444C745.713 174.273 745.648 174.038 745.559 173.74C745.476 173.45 745.305 173.101 745.046 172.694C744.451 171.759 743.779 171.221 743.029 171.081C742.284 170.95 741.442 171.15 740.504 171.683L719.603 183.548L717.805 180.719Z" fill="white"/>
<path d="M771.298 231.844L768.638 232.841L764.088 221.995L766.748 220.998L771.298 231.844ZM747.68 231.903L770.931 223.19C772.101 222.751 773.19 222.656 774.198 222.905C775.205 223.154 776.085 223.638 776.838 224.356C777.591 225.075 778.169 225.914 778.572 226.875C778.891 227.634 779.089 228.278 779.166 228.804C779.243 229.331 779.278 229.732 779.271 230.008L776.184 230.134C776.171 229.957 776.146 229.714 776.108 229.405C776.075 229.104 775.964 228.731 775.778 228.286C775.349 227.264 774.778 226.624 774.064 226.366C773.354 226.117 772.494 226.182 771.483 226.56L748.977 234.994L747.68 231.903Z" fill="white"/>
<path d="M791.488 290.687L788.706 291.258L786.069 279.796L788.852 279.225L791.488 290.687ZM768.27 287.049L792.591 282.051C793.816 281.8 794.902 281.876 795.85 282.281C796.797 282.685 797.581 283.302 798.199 284.132C798.817 284.962 799.243 285.884 799.477 286.899C799.661 287.702 799.747 288.371 799.734 288.905C799.721 289.439 799.687 289.843 799.633 290.115L796.578 289.757C796.596 289.579 796.612 289.334 796.628 289.022C796.646 288.718 796.6 288.331 796.492 287.861C796.244 286.781 795.791 286.057 795.133 285.69C794.477 285.332 793.621 285.261 792.563 285.479L769.021 290.316L768.27 287.049Z" fill="white"/>
<path d="M801.225 351.831L798.387 351.967L797.757 340.222L800.595 340.086L801.225 351.831ZM778.99 344.649L803.791 343.46C805.04 343.4 806.096 343.643 806.96 344.189C807.824 344.736 808.489 345.467 808.955 346.383C809.422 347.299 809.683 348.278 809.739 349.318C809.783 350.14 809.753 350.815 809.648 351.341C809.544 351.868 809.442 352.261 809.342 352.522L806.396 351.696C806.443 351.524 806.502 351.284 806.57 350.977C806.64 350.68 806.662 350.29 806.636 349.808C806.576 348.701 806.254 347.916 805.67 347.451C805.086 346.995 804.255 346.793 803.177 346.845L779.17 347.996L778.99 344.649Z" fill="white"/>
<path d="M800.26 413.618L797.435 413.316L798.833 401.638L801.658 401.94L800.26 413.618ZM779.545 403.117L804.234 405.758C805.477 405.891 806.477 406.294 807.236 406.965C807.995 407.637 808.526 408.46 808.829 409.435C809.131 410.411 809.221 411.415 809.097 412.45C808.999 413.268 808.853 413.928 808.659 414.431C808.466 414.934 808.297 415.307 808.154 415.548L805.387 414.281C805.464 414.118 805.563 413.89 805.684 413.598C805.803 413.316 805.892 412.935 805.949 412.456C806.081 411.355 805.898 410.531 805.401 409.983C804.903 409.444 804.117 409.117 803.044 409.002L779.146 406.445L779.545 403.117Z" fill="white"/>
<path d="M788.64 474.383L785.895 473.648L789.273 462.382L792.017 463.117L788.64 474.383ZM769.93 460.847L793.914 467.271C795.122 467.594 796.044 468.145 796.68 468.923C797.316 469.701 797.701 470.593 797.834 471.598C797.968 472.604 797.885 473.606 797.586 474.604C797.349 475.393 797.092 476.02 796.814 476.484C796.537 476.949 796.306 477.289 796.123 477.505L793.601 475.83C793.705 475.681 793.842 475.473 794.011 475.204C794.178 474.945 794.33 474.584 794.469 474.122C794.787 473.061 794.747 472.222 794.349 471.606C793.948 470.998 793.226 470.555 792.183 470.276L768.967 464.058L769.93 460.847Z" fill="white"/>
<path d="M766.702 532.5L764.106 531.346L769.345 520.816L771.941 521.969L766.702 532.5ZM750.434 516.263L773.124 526.346C774.266 526.854 775.087 527.54 775.587 528.404C776.087 529.268 776.319 530.204 776.282 531.213C776.245 532.221 775.995 533.192 775.531 534.125C775.164 534.862 774.804 535.437 774.451 535.85C774.098 536.262 773.812 536.56 773.595 536.743L771.377 534.701C771.505 534.572 771.675 534.388 771.888 534.152C772.096 533.924 772.308 533.593 772.523 533.161C773.017 532.169 773.118 531.339 772.827 530.671C772.531 530.012 771.89 529.463 770.904 529.025L748.941 519.264L750.434 516.263Z" fill="white"/>
<path d="M735.061 586.425L732.68 584.876L739.604 575.369L741.986 576.918L735.061 586.425ZM721.624 567.867L742.436 581.408C743.483 582.09 744.184 582.895 744.537 583.824C744.889 584.753 744.964 585.71 744.762 586.695C744.559 587.681 744.151 588.594 743.538 589.436C743.053 590.102 742.601 590.609 742.183 590.958C741.766 591.307 741.434 591.553 741.188 591.698L739.328 589.337C739.476 589.23 739.675 589.078 739.925 588.879C740.169 588.688 740.433 588.398 740.718 588.007C741.37 587.112 741.607 586.313 741.429 585.61C741.245 584.915 740.7 584.273 739.795 583.684L719.65 570.576L721.624 567.867Z" fill="white"/>
<path d="M694.579 634.74L692.478 632.828L700.87 624.588L702.971 626.499L694.579 634.74ZM684.319 614.285L702.685 630.994C703.61 631.835 704.171 632.742 704.368 633.714C704.566 634.686 704.484 635.641 704.124 636.578C703.763 637.515 703.211 638.349 702.468 639.079C701.88 639.656 701.351 640.082 700.881 640.358C700.412 640.634 700.044 640.823 699.777 640.926L698.323 638.299C698.487 638.218 698.708 638.1 698.987 637.945C699.26 637.796 699.568 637.553 699.913 637.215C700.703 636.438 701.068 635.69 701.006 634.969C700.937 634.254 700.504 633.534 699.705 632.807L681.927 616.634L684.319 614.285Z" fill="white"/>
<path d="M631.809 659.677C633.57 658.528 635.362 657.912 637.186 657.828C639.008 657.757 640.759 658.173 642.437 659.076C644.114 659.992 645.611 661.352 646.929 663.157C648.248 664.961 649.069 666.774 649.392 668.596C649.713 670.43 649.541 672.134 648.876 673.709C648.209 675.296 647.051 676.628 645.401 677.705C644.45 678.326 643.398 678.786 642.247 679.086C641.096 679.386 639.888 679.44 638.624 679.248C637.365 679.065 636.099 678.558 634.826 677.729C633.553 676.9 632.316 675.664 631.115 674.02L630.277 672.873L644.361 663.681L646.07 666.021L634.841 673.349C635.567 674.343 636.422 675.096 637.404 675.607C638.378 676.123 639.407 676.36 640.49 676.32C641.565 676.285 642.61 675.936 643.625 675.273C644.743 674.543 645.515 673.644 645.941 672.576C646.364 671.521 646.484 670.426 646.3 669.293C646.116 668.159 645.669 667.107 644.96 666.136L643.82 664.576C642.848 663.246 641.786 662.273 640.635 661.658C639.481 661.056 638.299 660.794 637.091 660.871C635.888 660.956 634.72 661.369 633.586 662.109C632.848 662.59 632.255 663.124 631.805 663.711C631.353 664.311 631.057 664.956 630.917 665.646C630.783 666.343 630.82 667.076 631.029 667.843L627.78 668.879C627.418 667.805 627.328 666.712 627.51 665.599C627.698 664.494 628.151 663.431 628.869 662.409C629.592 661.395 630.572 660.485 631.809 659.677Z" fill="white"/>
<path d="M565.311 721.91L564.139 719.322L575.043 714.914L576.215 717.503L565.311 721.91ZM563.954 698.945L574.19 721.566C574.706 722.705 574.863 723.764 574.662 724.743C574.461 725.723 574.012 726.578 573.315 727.309C572.618 728.04 571.786 728.6 570.82 728.991C570.056 729.3 569.406 729.491 568.868 729.566C568.331 729.64 567.92 729.673 567.636 729.666L567.337 726.664C567.518 726.652 567.767 726.628 568.083 726.592C568.391 726.559 568.768 726.453 569.216 726.272C570.243 725.856 570.87 725.302 571.096 724.608C571.313 723.918 571.199 723.082 570.754 722.098L560.846 700.201L563.954 698.945Z" fill="white"/>
<path d="M497.89 721.451C499.676 721.109 501.349 721.257 502.908 721.893C504.47 722.539 505.814 723.611 506.939 725.112C508.066 726.621 508.872 728.506 509.356 730.765C509.837 733.006 509.867 735.024 509.449 736.82C509.03 738.616 508.229 740.095 507.045 741.257C505.861 742.419 504.367 743.172 502.562 743.518C501.167 743.785 500.016 743.765 499.107 743.457C498.191 743.16 497.457 742.76 496.904 742.259C496.344 741.769 495.903 741.361 495.582 741.037L495.303 741.091L497.554 751.591L494.262 752.221L488.164 723.777L491.345 723.168L492.047 726.445L492.438 726.371C492.596 725.935 492.835 725.379 493.155 724.701C493.476 724.032 494.001 723.387 494.73 722.765C495.46 722.153 496.514 721.715 497.89 721.451ZM498.075 724.481C496.754 724.734 495.712 725.291 494.947 726.15C494.184 727.019 493.697 728.11 493.485 729.423C493.274 730.746 493.342 732.212 493.687 733.824C494.029 735.416 494.56 736.765 495.281 737.871C496.004 738.985 496.893 739.789 497.947 740.281C499.003 740.782 500.201 740.905 501.541 740.648C502.936 740.381 504.022 739.802 504.799 738.911C505.569 738.031 506.056 736.94 506.261 735.638C506.459 734.347 506.397 732.951 506.076 731.451C505.75 729.933 505.222 728.598 504.491 727.446C503.752 726.305 502.845 725.457 501.767 724.902C500.682 724.358 499.451 724.218 498.075 724.481Z" fill="white"/>
<path d="M407.066 754.894L407.079 752.053L418.84 752.101L418.827 754.942L407.066 754.894ZM415.405 733.109L415.291 757.939C415.285 759.189 414.987 760.229 414.396 761.06C413.805 761.891 413.04 762.513 412.1 762.926C411.161 763.339 410.17 763.543 409.129 763.539C408.305 763.535 407.633 763.466 407.112 763.331C406.592 763.197 406.205 763.072 405.949 762.957L406.929 760.064C407.099 760.121 407.335 760.193 407.638 760.28C407.931 760.366 408.319 760.41 408.802 760.412C409.91 760.417 410.711 760.141 411.206 759.584C411.692 759.027 411.937 758.209 411.942 757.13L412.052 733.096L415.405 733.109Z" fill="white"/>
<path d="M354.527 731.279L354.001 733.781L338.551 747.061L338.505 747.284L350.287 749.498L349.643 752.556L333.617 749.544L334.167 746.931L349.258 733.699L349.305 733.477L337.076 731.178L337.719 728.12L354.527 731.279Z" fill="white"/>
<path d="M261.418 731.793L260.381 721.697L251.774 727.756L248.21 726.264L259.338 719.106L257.468 706.507L261.032 707.999L262.262 717.684L270.676 712.036L274.24 713.528L263.217 720.73L264.982 733.285L261.418 731.793Z" fill="white"/>
<path d="M169.728 685.412L189.848 672.948L192.633 674.914L185.695 696.685L182.724 694.588L188.585 677.474L188.4 677.343L172.699 687.509L169.728 685.412Z" fill="white"/>
<path d="M124.865 620.467C126.226 621.994 127.021 623.609 127.249 625.314C127.477 627.018 127.193 628.695 126.397 630.345C125.6 631.995 124.351 633.499 122.647 634.856C120.914 636.237 119.114 637.152 117.246 637.6C115.365 638.048 113.561 638.022 111.836 637.522C110.097 637.022 108.573 636.036 107.261 634.567C106.24 633.422 105.542 632.213 105.167 630.94C104.792 629.667 104.743 628.419 105.019 627.195C105.296 625.971 105.905 624.864 106.845 623.873L109.076 626.374C108.469 627.185 108.158 628.158 108.145 629.293C108.117 630.427 108.595 631.545 109.579 632.648C110.449 633.623 111.478 634.265 112.667 634.575C113.842 634.884 115.094 634.86 116.422 634.503C117.737 634.144 119.038 633.452 120.327 632.425C121.645 631.375 122.617 630.262 123.241 629.087C123.86 627.906 124.114 626.735 124.006 625.577C123.891 624.411 123.392 623.333 122.51 622.344C121.93 621.694 121.285 621.198 120.575 620.857C119.865 620.516 119.125 620.338 118.352 620.325C117.58 620.312 116.814 620.475 116.053 620.815L113.822 618.314C114.955 617.652 116.174 617.279 117.479 617.194C118.771 617.108 120.06 617.332 121.347 617.866C122.621 618.399 123.793 619.266 124.865 620.467Z" fill="white"/>
<path d="M48.8997 556.684L72.385 554.309L74.0041 557.309L58.1826 573.885L56.4556 570.685L69.2564 557.834L69.1485 557.634L50.6268 559.884L48.8997 556.684Z" fill="white"/>
<path d="M39.4796 482.246C39.8302 483.583 39.8949 484.856 39.6736 486.065C39.4431 487.276 38.9279 488.316 38.1279 489.184C37.3187 490.054 36.2226 490.651 34.8395 490.975C33.6225 491.26 32.5735 491.253 31.6925 490.953C30.8024 490.656 30.0361 490.16 29.3938 489.465C28.7515 488.769 28.1982 487.966 27.734 487.053C27.2581 486.134 26.8271 485.2 26.4411 484.25C25.9388 483.006 25.5418 481.996 25.2498 481.218C24.9463 480.434 24.6404 479.883 24.3323 479.566C24.0217 479.241 23.6037 479.139 23.0782 479.262L22.9675 479.288C21.6029 479.608 20.6399 480.227 20.0784 481.146C19.5145 482.056 19.4283 483.258 19.8198 484.751C20.2257 486.299 20.8851 487.433 21.7979 488.152C22.7108 488.872 23.6013 489.319 24.4695 489.495L24.17 492.832C22.7351 492.585 21.538 492.087 20.5786 491.34C19.6076 490.585 18.8363 489.697 18.2647 488.673C17.6814 487.643 17.2505 486.597 16.9719 485.534C16.7942 484.857 16.673 484.059 16.6084 483.14C16.5322 482.215 16.6349 481.282 16.9166 480.341C17.1959 479.391 17.7661 478.523 18.6269 477.738C19.4878 476.953 20.7619 476.363 22.4492 475.968L36.4454 472.689L37.2956 475.932L34.4189 476.606L34.4622 476.771C34.9808 476.883 35.5702 477.134 36.2302 477.523C36.8903 477.913 37.5164 478.491 38.1086 479.256C38.7007 480.022 39.1577 481.018 39.4796 482.246ZM36.4179 482.438C36.0816 481.156 35.5447 480.134 34.807 479.374C34.0669 478.604 33.2369 478.088 32.3171 477.827C31.3948 477.557 30.4912 477.526 29.606 477.733L26.6187 478.433C26.8207 478.532 27.0521 478.798 27.3129 479.233C27.562 479.661 27.8166 480.165 28.0765 480.746C28.3249 481.32 28.5604 481.882 28.783 482.432C28.9941 482.976 29.1683 483.417 29.3057 483.754C29.6373 484.571 30.0236 485.316 30.4647 485.991C30.8942 486.658 31.4121 487.159 32.0184 487.494C32.6132 487.821 33.3254 487.888 34.1553 487.693C35.2893 487.428 36.0375 486.81 36.3998 485.84C36.7505 484.864 36.7565 483.73 36.4179 482.438Z" fill="white"/>
<path d="M31.5103 399.066C31.5205 400.685 31.321 402.079 30.9118 403.246C30.512 404.413 29.9784 405.386 29.311 406.167C28.653 406.937 27.9466 407.552 27.192 408.011L25.3 405.351C25.6958 405.046 26.1479 404.66 26.6563 404.193C27.1742 403.726 27.62 403.089 27.9937 402.282C28.3767 401.465 28.5641 400.399 28.5558 399.083C28.5446 397.321 28.1092 395.87 27.2497 394.729C26.3901 393.588 25.0513 393.023 23.2331 393.033L18.8014 393.058L18.8032 393.343C19.2025 393.587 19.6971 393.934 20.2871 394.385C20.8676 394.827 21.3878 395.468 21.8477 396.308C22.298 397.139 22.5277 398.265 22.5367 399.685C22.5479 401.446 22.1413 403.03 21.3169 404.436C20.4924 405.833 19.2873 406.943 17.7016 407.767C16.1158 408.581 14.1866 408.994 11.9139 409.007C9.67907 409.02 7.73059 408.638 6.06842 407.861C4.39679 407.085 3.10199 405.998 2.18402 404.602C1.25657 403.206 0.787019 401.589 0.775355 399.752C0.766336 398.331 0.995921 397.203 1.46411 396.367C1.92276 395.522 2.44897 394.875 3.04272 394.426C3.62695 393.968 4.10767 393.615 4.48489 393.367L4.48272 393.026L1.01687 393.046L0.996309 389.807L23.4391 389.68C25.3141 389.669 26.8414 390.087 28.021 390.932C29.2101 391.768 30.0838 392.9 30.6421 394.327C31.2098 395.744 31.4992 397.324 31.5103 399.066ZM19.5225 399.248C19.514 397.903 19.199 396.768 18.5776 395.844C17.9562 394.919 17.0663 394.219 15.908 393.743C14.7496 393.266 13.3655 393.032 11.7557 393.042C10.1838 393.051 8.79797 393.295 7.59834 393.775C6.39871 394.256 5.46094 394.962 4.78503 395.894C4.10911 396.826 3.77549 397.973 3.78414 399.337C3.79316 400.757 4.16052 401.939 4.88622 402.882C5.61186 403.815 6.58223 404.515 7.79734 404.982C9.01239 405.439 10.3585 405.663 11.8358 405.655C13.3509 405.646 14.6893 405.402 15.8511 404.922C17.0033 404.432 17.9079 403.717 18.5648 402.776C19.2122 401.825 19.5314 400.649 19.5225 399.248Z" fill="white"/>
<path d="M28.6436 314.53C28.3098 315.871 27.7527 317.032 26.9722 318.013C26.1825 318.992 25.2223 319.695 24.0916 320.122C22.9517 320.548 21.6885 320.606 20.3018 320.298C19.0816 320.027 18.1519 319.568 17.5128 318.922C16.8644 318.274 16.4224 317.501 16.1868 316.605C15.9512 315.709 15.8471 314.755 15.8745 313.743C15.895 312.72 15.9628 311.702 16.078 310.69C16.2317 309.366 16.3663 308.296 16.482 307.478C16.5908 306.648 16.5845 306.026 16.4634 305.612C16.3445 305.187 16.0216 304.917 15.4947 304.8L15.3837 304.775C14.0156 304.471 12.8599 304.607 11.9167 305.183C10.9758 305.75 10.319 306.782 9.94642 308.28C9.56008 309.833 9.59921 311.127 10.0638 312.161C10.5284 313.195 11.1044 313.978 11.7918 314.509L9.91435 317.35C8.75732 316.511 7.93259 315.552 7.44015 314.473C6.94075 313.382 6.68379 312.258 6.66926 311.101C6.64777 309.933 6.76962 308.815 7.0348 307.749C7.20397 307.069 7.48148 306.307 7.86734 305.461C8.24624 304.605 8.78815 303.819 9.49308 303.102C10.2003 302.377 11.1263 301.851 12.2711 301.523C13.4159 301.196 14.8341 301.22 16.5258 301.596L30.5585 304.714L29.7492 307.968L26.865 307.327L26.8239 307.492C27.2312 307.815 27.6343 308.293 28.0332 308.925C28.4321 309.556 28.7102 310.34 28.8673 311.277C29.0245 312.214 28.9499 313.298 28.6436 314.53ZM25.8274 313.38C26.1474 312.094 26.1629 310.953 25.874 309.957C25.5873 308.953 25.0978 308.136 24.4056 307.507C23.7157 306.869 22.927 306.451 22.0395 306.254L19.0444 305.589C19.1765 305.764 19.2536 306.101 19.2757 306.6C19.2908 307.088 19.2738 307.647 19.2246 308.276C19.1684 308.894 19.1065 309.496 19.0387 310.082C18.9639 310.657 18.9062 311.124 18.8656 311.484C18.7662 312.354 18.7499 313.184 18.8166 313.975C18.8763 314.754 19.0952 315.424 19.4731 315.983C19.8441 316.531 20.4455 316.897 21.2775 317.082C22.4145 317.335 23.3783 317.108 24.1687 316.401C24.9521 315.683 25.505 314.676 25.8274 313.38Z" fill="white"/>
<path d="M52.442 235.336L29.7309 231.07L31.4954 228.021L48.6964 231.611L48.8102 231.414L36.3052 219.71L38.0982 216.612L55.1918 220.274L55.3056 220.077L42.8795 208.35L44.6441 205.301L60.6954 221.075L59.0447 223.927L41.7649 220.36L41.5941 220.655L54.0927 232.484L52.442 235.336Z" fill="white"/>
<path d="M123.936 146.779C122.767 147.899 121.609 148.721 120.464 149.243C119.325 149.771 118.229 150.075 117.177 150.154C116.138 150.233 115.178 150.171 114.295 149.969L114.851 146.843C115.361 146.905 115.97 146.949 116.68 146.977C117.396 147.011 118.183 146.878 119.041 146.579C119.913 146.28 120.824 145.676 121.774 144.765C123.045 143.546 123.783 142.249 123.987 140.875C124.19 139.501 123.627 138.195 122.297 136.955L119.055 133.934L118.849 134.13C118.963 134.572 119.07 135.15 119.171 135.865C119.273 136.567 119.185 137.364 118.91 138.257C118.634 139.137 117.983 140.069 116.958 141.052C115.686 142.271 114.24 143.081 112.618 143.483C111.004 143.878 109.321 143.815 107.569 143.294C105.824 142.767 104.12 141.728 102.457 140.179C100.822 138.655 99.6823 137.057 99.0373 135.383C98.3853 133.703 98.2327 132.068 98.5793 130.478C98.919 128.882 99.752 127.448 101.078 126.177C102.104 125.194 103.09 124.576 104.038 124.322C104.986 124.055 105.839 123.971 106.597 124.069C107.354 124.155 107.961 124.242 108.415 124.33L108.661 124.094L106.126 121.731L108.464 119.49L124.883 134.79C126.255 136.068 127.063 137.403 127.306 138.793C127.564 140.183 127.378 141.56 126.747 142.924C126.131 144.288 125.193 145.573 123.936 146.779ZM115.083 138.684C116.053 137.754 116.649 136.758 116.868 135.696C117.088 134.634 116.949 133.542 116.453 132.42C115.956 131.298 115.119 130.189 113.941 129.091C112.791 128.02 111.605 127.238 110.384 126.745C109.162 126.253 107.967 126.096 106.798 126.273C105.629 126.451 104.553 127.011 103.568 127.955C102.543 128.938 101.952 130.002 101.795 131.148C101.644 132.288 101.842 133.434 102.387 134.588C102.939 135.736 103.755 136.813 104.836 137.82C105.944 138.853 107.095 139.603 108.289 140.069C109.483 140.523 110.661 140.651 111.823 140.454C112.984 140.244 114.071 139.654 115.083 138.684Z" fill="white"/>
<path d="M186.671 84.0303C185.096 84.9379 183.456 85.3531 181.752 85.276C180.043 85.191 178.391 84.6364 176.797 83.6121C175.197 82.5799 173.771 81.0929 172.519 79.1511C171.277 77.2251 170.539 75.3577 170.307 73.5488C170.074 71.7398 170.316 70.0996 171.033 68.628C171.75 67.1564 172.904 65.9621 174.496 65.0451C175.727 64.336 176.827 63.9748 177.798 63.9615C178.771 63.9355 179.608 64.0644 180.309 64.3484C181.013 64.6196 181.574 64.8529 181.993 65.0484L182.239 64.9066L176.419 55.8818L179.324 54.2084L195.09 78.6565L192.284 80.2732L190.467 77.4559L190.122 77.6544C190.125 78.1116 190.093 78.7083 190.028 79.4445C189.957 80.1728 189.685 80.9462 189.211 81.7649C188.732 82.5755 187.886 83.3307 186.671 84.0303ZM185.433 81.2726C186.598 80.6014 187.393 79.7397 187.818 78.6875C188.237 77.6274 188.317 76.4515 188.058 75.1599C187.794 73.8604 187.215 72.5182 186.322 71.1335C185.439 69.7646 184.462 68.6851 183.39 67.8948C182.312 67.0966 181.187 66.6426 180.013 66.5328C178.834 66.4151 177.654 66.6966 176.472 67.3773C175.242 68.0864 174.413 68.9837 173.988 70.0692C173.566 71.142 173.486 72.3178 173.748 73.5967C174.013 74.8629 174.561 76.1407 175.393 77.4299C176.234 78.7351 177.204 79.8027 178.302 80.6328C179.403 81.4502 180.563 81.9392 181.78 82.1C183.001 82.248 184.219 81.9722 185.433 81.2726Z" fill="white"/>
<path d="M271.49 51.5611C269.937 52.0189 268.537 52.2146 267.289 52.1482C266.044 52.0908 264.944 51.8526 263.988 51.4337C263.045 51.021 262.236 50.5192 261.563 49.9283L263.537 47.3928C263.952 47.6848 264.463 48.008 265.068 48.3624C265.676 48.7259 266.426 48.9736 267.317 49.1058C268.219 49.2443 269.302 49.1274 270.565 48.7553C272.254 48.2573 273.515 47.4417 274.347 46.3084C275.179 45.1751 275.31 43.7451 274.741 42.0185L273.352 37.8098L273.079 37.8901C272.968 38.3375 272.786 38.9041 272.534 39.5902C272.288 40.2646 271.832 40.9368 271.166 41.6067C270.506 42.265 269.495 42.7949 268.133 43.1965C266.443 43.6944 264.796 43.7459 263.19 43.3507C261.594 42.9529 260.156 42.1137 258.876 40.8332C257.606 39.5499 256.614 37.8292 255.902 35.6709C255.202 33.5486 254.969 31.5894 255.204 29.7935C255.435 27.9885 256.081 26.4563 257.141 25.1967C258.197 23.9282 259.606 23.0342 261.369 22.5148C262.731 22.1132 263.886 22.0195 264.834 22.2335C265.788 22.4359 266.572 22.7574 267.185 23.1982C267.805 23.6272 268.293 23.9868 268.648 24.2769L268.975 24.1805L267.889 20.8891L270.995 19.9735L278.027 41.2866C278.615 43.0672 278.684 44.6355 278.234 45.9915C277.797 47.3539 276.978 48.498 275.779 49.4239C274.591 50.3561 273.162 51.0684 271.49 51.5611ZM267.625 40.2082C268.915 39.8281 269.908 39.2145 270.606 38.3676C271.303 37.5207 271.702 36.4804 271.804 35.2468C271.905 34.0131 271.703 32.6319 271.199 31.1031C270.706 29.6103 270.045 28.3597 269.214 27.3515C268.383 26.3433 267.415 25.6466 266.311 25.2615C265.208 24.8764 264.002 24.8766 262.694 25.2621C261.331 25.6637 260.309 26.3401 259.626 27.2913C258.952 28.2398 258.578 29.3565 258.503 30.6414C258.438 31.9237 258.637 33.2663 259.1 34.6692C259.575 36.108 260.222 37.3136 261.041 38.2858C261.866 39.2464 262.832 39.909 263.939 40.2734C265.052 40.6262 266.281 40.6045 267.625 40.2082Z" fill="white"/>
<path d="M365.54 0.952622L358.994 23.2168L355.592 23.4273L346.031 2.15945L349.661 1.93493L356.873 18.9079L357.1 18.8938L361.91 1.17715L365.54 0.952622Z" fill="white"/>
<path d="M441.313 0.716934L444.986 10.296L451.649 2.2866L455.469 2.86669L446.675 12.5637L451.813 24.3763L447.993 23.7962L444.244 14.6652L437.657 22.2265L433.837 21.6464L442.518 11.9324L437.494 0.136841L441.313 0.716934Z" fill="white"/>
<path d="M516.167 36.9745L517.162 34.6193L534.942 24.3378L535.03 24.1285L523.814 19.8954L525.03 17.0167L540.286 22.7745L539.247 25.2345L521.831 35.5316L521.742 35.741L533.384 40.1345L532.168 43.0132L516.167 36.9745Z" fill="white"/>
<path d="M620.988 61.1057L601.357 74.3087L598.503 72.4448L604.622 50.4194L607.667 52.4076L602.45 69.7367L602.64 69.861L617.943 59.1176L620.988 61.1057Z" fill="white"/>
<path d="M668.34 124.465C666.922 122.991 666.068 121.406 665.777 119.712C665.486 118.018 665.708 116.332 666.443 114.654C667.178 112.976 668.372 111.428 670.024 110.009C671.705 108.565 673.471 107.585 675.321 107.068C677.186 106.552 678.989 106.511 680.732 106.946C682.488 107.382 684.049 108.31 685.414 109.73C686.477 110.836 687.22 112.018 687.642 113.276C688.064 114.533 688.159 115.779 687.928 117.012C687.697 118.244 687.129 119.373 686.226 120.398L683.903 117.981C684.48 117.149 684.755 116.166 684.726 115.031C684.712 113.897 684.192 112.798 683.169 111.733C682.263 110.791 681.211 110.187 680.011 109.921C678.825 109.655 677.574 109.726 676.26 110.132C674.959 110.538 673.683 111.278 672.433 112.352C671.154 113.45 670.225 114.597 669.644 115.794C669.069 116.997 668.858 118.176 669.009 119.329C669.167 120.49 669.706 121.548 670.624 122.504C671.228 123.132 671.891 123.603 672.613 123.918C673.335 124.232 674.082 124.382 674.855 124.367C675.627 124.352 676.387 124.16 677.135 123.792L679.458 126.209C678.35 126.912 677.145 127.33 675.843 127.463C674.555 127.596 673.258 127.42 671.952 126.934C670.659 126.449 669.455 125.626 668.34 124.465Z" fill="white"/>
<path d="M738.754 172.084L733.554 180.765L744.104 181.065L746.081 184.385L732.845 183.456L726.821 194.634L724.843 191.315L729.642 182.847L719.493 182.333L717.516 179.014L730.694 179.844L736.776 168.764L738.754 172.084Z" fill="white"/>
<path d="M756.29 249.797L758.75 249.097L777.809 256.55L778.027 256.487L774.391 245.063L777.397 244.209L782.343 259.748L779.774 260.478L760.928 253.319L760.709 253.382L764.483 265.239L761.477 266.093L756.29 249.797Z" fill="white"/>
<path d="M800.571 343.472L778.222 336.816L777.979 333.416L799.176 323.976L799.436 327.603L782.515 334.72L782.531 334.947L800.312 339.845L800.571 343.472Z" fill="white"/>
<path d="M793.838 426.235L793.48 423.14C794.007 423.025 794.535 422.82 795.063 422.524C795.599 422.238 796.071 421.81 796.481 421.238C796.891 420.666 797.175 419.899 797.332 418.936C797.547 417.618 797.422 416.476 796.956 415.508C796.498 414.552 795.805 414.006 794.878 413.871C794.053 413.75 793.353 413.955 792.777 414.483C792.202 415.011 791.651 415.888 791.125 417.113L789.816 420.194C789.033 422.051 788.082 423.381 786.963 424.184C785.853 424.989 784.544 425.281 783.035 425.061C781.798 424.881 780.751 424.365 779.892 423.512C779.032 422.669 778.424 421.576 778.067 420.232C777.711 418.888 777.669 417.38 777.943 415.707C778.301 413.511 779.076 411.763 780.266 410.463C781.457 409.163 783.002 408.455 784.901 408.34L785.176 411.595C783.965 411.725 783.001 412.163 782.285 412.91C781.566 413.666 781.097 414.722 780.875 416.077C780.624 417.62 780.752 418.892 781.26 419.894C781.776 420.907 782.497 421.481 783.425 421.616C784.175 421.725 784.845 421.555 785.437 421.106C786.037 420.657 786.553 419.91 786.983 418.862L788.412 415.397C789.202 413.493 790.165 412.15 791.3 411.368C792.443 410.597 793.759 410.32 795.249 410.538C796.467 410.715 797.489 411.213 798.315 412.032C799.139 412.861 799.721 413.907 800.062 415.172C800.401 416.446 800.446 417.84 800.199 419.354C799.851 421.485 799.11 423.09 797.975 424.168C796.838 425.256 795.459 425.945 793.838 426.235Z" fill="white"/>
<path d="M760.988 489.265C761.517 487.988 762.242 486.919 763.163 486.059C764.092 485.203 765.149 484.641 766.336 484.374C767.531 484.111 768.794 484.226 770.126 484.719C771.299 485.153 772.154 485.733 772.694 486.458C773.242 487.186 773.567 488.007 773.669 488.923C773.77 489.839 773.733 490.794 773.556 491.788C773.385 492.794 773.167 493.788 772.903 494.77C772.555 496.054 772.263 497.091 772.027 497.881C771.797 498.684 771.711 499.298 771.77 499.724C771.826 500.158 772.106 500.469 772.612 500.657L772.719 500.696C774.033 501.183 775.201 501.207 776.223 500.769C777.242 500.339 778.047 499.411 778.638 497.985C779.251 496.507 779.404 495.226 779.095 494.143C778.786 493.06 778.329 492.209 777.725 491.592L780.01 489.048C781.035 490.033 781.713 491.091 782.043 492.223C782.378 493.366 782.467 494.509 782.31 495.652C782.159 496.807 781.873 497.892 781.452 498.907C781.184 499.554 780.795 500.268 780.287 501.048C779.784 501.841 779.13 502.542 778.324 503.151C777.514 503.77 776.516 504.162 775.331 504.328C774.145 504.494 772.74 504.276 771.115 503.674L757.636 498.679L758.92 495.583L761.691 496.609L761.756 496.452C761.399 496.077 761.069 495.551 760.766 494.874C760.463 494.197 760.303 493.385 760.285 492.44C760.267 491.495 760.501 490.437 760.988 489.265ZM763.615 490.783C763.108 492.008 762.924 493.131 763.064 494.151C763.2 495.181 763.566 496.053 764.16 496.768C764.751 497.491 765.473 498.011 766.326 498.327L769.203 499.393C769.097 499.203 769.071 498.86 769.122 498.364C769.179 497.881 769.279 497.332 769.421 496.719C769.568 496.117 769.718 495.532 769.872 494.964C770.031 494.407 770.158 493.954 770.251 493.606C770.478 492.761 770.617 491.945 770.668 491.156C770.724 490.38 770.605 489.69 770.312 489.087C770.025 488.496 769.481 488.052 768.682 487.756C767.59 487.352 766.599 487.444 765.709 488.032C764.825 488.633 764.127 489.55 763.615 490.783Z" fill="white"/>
<path d="M723.331 564.985C724.413 563.523 725.751 562.487 727.345 561.875C728.948 561.268 730.686 561.113 732.559 561.412C734.441 561.715 736.345 562.504 738.273 563.779C740.184 565.043 741.609 566.456 742.547 568.017C743.485 569.579 743.92 571.176 743.853 572.809C743.785 574.442 743.204 575.997 742.111 577.474C741.266 578.615 740.401 579.387 739.516 579.788C738.633 580.201 737.813 580.419 737.056 580.44C736.301 580.474 735.693 580.485 735.231 580.474L735.061 580.702L744.018 586.626L742.024 589.32L717.76 573.272L719.687 570.669L722.483 572.519L722.719 572.199C722.534 571.782 722.324 571.223 722.089 570.524C721.862 569.829 721.802 569.013 721.908 568.074C722.023 567.141 722.497 566.111 723.331 564.985ZM725.572 567.011C724.772 568.092 724.388 569.198 724.42 570.331C724.46 571.468 724.858 572.576 725.613 573.654C726.376 574.737 727.445 575.733 728.82 576.642C730.178 577.54 731.508 578.136 732.808 578.43C734.117 578.728 735.332 578.693 736.452 578.323C737.581 577.958 738.551 577.228 739.363 576.132C740.208 574.991 740.608 573.838 740.564 572.675C740.521 571.524 740.123 570.417 739.371 569.352C738.62 568.3 737.605 567.351 736.325 566.504C735.03 565.648 733.712 565.059 732.372 564.74C731.034 564.433 729.774 564.45 728.592 564.791C727.413 565.145 726.406 565.885 725.572 567.011Z" fill="white"/>
<path d="M659.29 627.029C660.541 626.002 661.758 625.272 662.941 624.84C664.116 624.401 665.232 624.182 666.287 624.185C667.328 624.186 668.281 624.322 669.145 624.591L668.349 627.666C667.846 627.565 667.242 627.474 666.538 627.392C665.826 627.303 665.032 627.374 664.153 627.606C663.261 627.837 662.306 628.37 661.289 629.205C659.927 630.322 659.092 631.558 658.783 632.913C658.474 634.268 658.935 635.614 660.165 636.953L663.164 640.216L663.383 640.036C663.304 639.587 663.242 639.002 663.196 638.281C663.149 637.574 663.298 636.785 663.642 635.916C663.985 635.059 664.705 634.18 665.803 633.279C667.164 632.162 668.669 631.465 670.316 631.19C671.956 630.92 673.629 631.112 675.334 631.767C677.033 632.428 678.651 633.595 680.189 635.269C681.701 636.914 682.714 638.597 683.228 640.316C683.748 642.041 683.774 643.684 683.306 645.242C682.844 646.808 681.903 648.174 680.483 649.339C679.385 650.24 678.354 650.781 677.389 650.961C676.424 651.154 675.567 651.172 674.82 651.015C674.071 650.871 673.474 650.738 673.027 650.615L672.763 650.832L675.108 653.384L672.605 655.439L657.42 638.913C656.151 637.532 655.449 636.139 655.313 634.734C655.164 633.327 655.456 631.968 656.19 630.657C656.91 629.344 657.943 628.135 659.29 627.029ZM667.489 635.785C666.45 636.638 665.78 637.586 665.479 638.628C665.178 639.67 665.232 640.769 665.64 641.927C666.049 643.084 666.797 644.255 667.887 645.44C668.95 646.598 670.072 647.469 671.252 648.054C672.431 648.64 673.61 648.889 674.789 648.802C675.968 648.715 677.084 648.239 678.138 647.374C679.236 646.473 679.907 645.457 680.152 644.326C680.39 643.201 680.282 642.042 679.828 640.849C679.366 639.663 678.636 638.525 677.636 637.437C676.611 636.322 675.521 635.485 674.367 634.928C673.212 634.384 672.048 634.165 670.875 634.272C669.701 634.391 668.572 634.896 667.489 635.785Z" fill="white"/>
<path d="M593.841 685.48L609.595 702.349L606.373 703.773L594.653 690.706L594.445 690.798L597.59 707.654L594.316 709.101L582.725 696.039L582.517 696.131L585.585 712.959L582.363 714.383L578.769 692.14L581.784 690.808L593.581 703.902L593.893 703.764L590.827 686.812L593.841 685.48Z" fill="white"/>
<path d="M485.271 724.255C486.636 724.037 487.921 724.095 489.126 724.43C490.332 724.773 491.35 725.382 492.18 726.256C493.011 727.14 493.552 728.28 493.803 729.679C494.023 730.909 493.959 731.945 493.61 732.788C493.262 733.639 492.721 734.349 491.986 734.917C491.251 735.485 490.411 735.955 489.468 736.327C488.517 736.709 487.553 737.046 486.576 737.336C485.297 737.714 484.258 738.009 483.459 738.223C482.653 738.448 482.082 738.698 481.747 738.972C481.402 739.248 481.277 739.651 481.372 740.183L481.392 740.295C481.639 741.674 482.21 742.685 483.104 743.329C483.989 743.973 485.194 744.174 486.718 743.93C488.298 743.677 489.475 743.134 490.249 742.3C491.024 741.467 491.523 740.629 491.747 739.788L495.089 740.404C494.762 741.798 494.196 742.934 493.391 743.811C492.579 744.698 491.642 745.376 490.581 745.843C489.513 746.321 488.436 746.646 487.351 746.82C486.659 746.931 485.849 746.974 484.922 746.95C483.986 746.937 483.053 746.746 482.121 746.377C481.18 746.01 480.338 745.363 479.595 744.437C478.852 743.511 478.327 742.195 478.022 740.489L475.487 726.339L478.797 725.809L479.318 728.718L479.486 728.691C479.627 728.189 479.912 727.63 480.34 727.015C480.769 726.4 481.384 725.836 482.187 725.324C482.99 724.812 484.018 724.456 485.271 724.255ZM485.297 727.3C483.988 727.51 482.93 727.943 482.125 728.599C481.309 729.257 480.745 730.028 480.433 730.912C480.11 731.798 480.029 732.688 480.19 733.583L480.731 736.603C480.841 736.413 481.122 736.21 481.574 735.994C482.018 735.788 482.539 735.585 483.138 735.384C483.729 735.193 484.308 735.014 484.874 734.847C485.433 734.691 485.886 734.561 486.233 734.457C487.073 734.208 487.845 733.897 488.548 733.526C489.243 733.165 489.775 732.701 490.145 732.134C490.507 731.577 490.613 730.88 490.463 730.041C490.257 728.894 489.676 728.095 488.72 727.644C487.757 727.204 486.615 727.089 485.297 727.3Z" fill="white"/>
<path d="M397.645 725.007C399.261 725.112 400.634 725.411 401.766 725.903C402.899 726.385 403.828 726.987 404.554 727.708C405.27 728.419 405.828 729.168 406.226 729.953L403.424 731.648C403.151 731.232 402.802 730.754 402.376 730.213C401.951 729.663 401.351 729.173 400.575 728.743C399.791 728.303 398.742 728.039 397.429 727.953C395.671 727.838 394.189 728.168 392.984 728.943C391.778 729.718 391.109 731.013 390.976 732.826L390.652 737.246L390.935 737.264C391.21 736.884 391.596 736.416 392.092 735.86C392.578 735.313 393.259 734.84 394.133 734.442C394.997 734.052 396.138 733.904 397.555 733.997C399.313 734.112 400.86 734.631 402.198 735.554C403.526 736.476 404.538 737.757 405.235 739.397C405.922 741.036 406.182 742.989 406.016 745.256C405.852 747.484 405.318 749.4 404.412 751.001C403.506 752.612 402.321 753.825 400.856 754.64C399.39 755.464 397.74 755.816 395.907 755.696C394.49 755.604 393.383 755.294 392.586 754.767C391.779 754.249 391.175 753.678 390.774 753.054C390.364 752.439 390.049 751.934 389.831 751.541L389.491 751.518L389.238 754.975L386.006 754.763L387.647 732.38C387.784 730.51 388.321 729.017 389.257 727.902C390.185 726.777 391.382 725.987 392.849 725.532C394.308 725.068 395.906 724.893 397.645 725.007ZM396.881 736.971C395.54 736.883 394.383 737.115 393.412 737.669C392.441 738.222 391.672 739.059 391.106 740.179C390.54 741.3 390.197 742.663 390.08 744.269C389.965 745.836 390.1 747.236 390.484 748.466C390.869 749.696 391.499 750.682 392.375 751.422C393.251 752.163 394.37 752.578 395.731 752.667C397.148 752.76 398.355 752.478 399.353 751.823C400.341 751.166 401.116 750.249 401.677 749.071C402.229 747.892 402.558 746.566 402.666 745.093C402.777 743.582 402.639 742.23 402.252 741.038C401.854 739.854 401.212 738.901 400.325 738.178C399.428 737.465 398.28 737.062 396.881 736.971Z" fill="white"/>
<path d="M306.211 721.858C307.949 722.392 309.334 723.298 310.366 724.576C311.395 725.862 312.011 727.418 312.214 729.242C312.414 731.076 312.138 733.086 311.387 735.271C310.641 737.438 309.619 739.203 308.319 740.566C307.02 741.929 305.551 742.839 303.912 743.296C302.274 743.753 300.577 743.712 298.82 743.172C297.463 742.755 296.467 742.202 295.833 741.512C295.188 740.828 294.754 740.141 294.531 739.449C294.297 738.763 294.124 738.204 294.011 737.774L293.74 737.69L290.247 747.845L287.043 746.861L296.504 719.351L299.6 720.303L298.51 723.473L298.89 723.589C299.255 723.286 299.753 722.914 300.384 722.474C301.013 722.044 301.807 721.728 302.767 721.528C303.723 721.337 304.871 721.447 306.211 721.858ZM304.797 724.573C303.512 724.178 302.311 724.175 301.196 724.565C300.078 724.964 299.085 725.684 298.217 726.724C297.346 727.773 296.642 729.077 296.106 730.635C295.577 732.175 295.339 733.593 295.395 734.887C295.447 736.19 295.806 737.3 296.471 738.218C297.133 739.144 298.116 739.807 299.42 740.208C300.778 740.625 302.028 740.628 303.17 740.216C304.3 739.811 305.293 739.092 306.149 738.058C306.993 737.03 307.665 735.79 308.164 734.34C308.669 732.871 308.901 731.467 308.861 730.128C308.809 728.795 308.457 727.638 307.804 726.655C307.139 725.678 306.137 724.984 304.797 724.573Z" fill="white"/>
<path d="M213.804 711.673L214.107 701.567L204.744 706.457L201.396 704.529L213.411 698.875L213.216 686.19L216.564 688.118L216.508 697.842L225.624 693.334L228.972 695.262L217.055 700.973L217.152 713.601L213.804 711.673Z" fill="white"/>
<path d="M129.149 654.345L150.738 644.606L153.247 646.914L143.534 667.577L140.858 665.115L148.897 648.925L148.73 648.771L131.825 656.807L129.149 654.345Z" fill="white"/>
<path d="M98.6588 592.719L96.4776 594.053L75.9082 592.133L75.7143 592.251L82.4869 602.144L79.821 603.774L70.609 590.319L72.8872 588.925L93.167 590.623L93.3608 590.505L86.3315 580.237L88.9974 578.607L98.6588 592.719Z" fill="white"/>
<path d="M34.0061 529.247L40.5261 521.439L30.2016 519.51L28.7957 515.911L41.6593 518.879L49.3953 508.721L50.8013 512.32L44.7104 519.979L54.6057 522.058L56.0117 525.657L43.1894 522.795L35.412 532.846L34.0061 529.247Z" fill="white"/>
<path d="M28.7173 440.26C28.9956 442.287 28.7558 444.091 27.998 445.672C27.2403 447.253 26.0742 448.541 24.5 449.535C22.9257 450.529 21.0577 451.159 18.8958 451.424C16.6964 451.694 14.7001 451.529 12.9068 450.928C11.1029 450.32 9.62644 449.347 8.47744 448.009C7.31777 446.663 6.60396 445.014 6.33602 443.063C6.12733 441.543 6.22124 440.139 6.61773 438.85C7.01422 437.561 7.66657 436.465 8.57477 435.562C9.48297 434.659 10.6009 434.03 11.9287 433.677L12.3847 436.998C11.4325 437.372 10.6357 438.042 9.99415 439.008C9.34193 439.966 9.11629 441.176 9.31725 442.64C9.49502 443.935 9.98926 445.028 10.8 445.921C11.6 446.805 12.6483 447.445 13.9449 447.839C15.2309 448.225 16.6916 448.318 18.327 448.117C20.0001 447.912 21.4209 447.471 22.5895 446.793C23.7568 446.106 24.6171 445.237 25.1706 444.187C25.7228 443.127 25.9087 441.94 25.7283 440.627C25.6098 439.764 25.3519 438.999 24.9545 438.332C24.5571 437.665 24.0429 437.123 23.412 436.704C22.7811 436.285 22.0567 436.021 21.2388 435.912L20.7828 432.591C22.0868 432.621 23.302 432.945 24.4283 433.56C25.5439 434.167 26.4855 435.039 27.2533 436.176C28.0103 437.304 28.4983 438.665 28.7173 440.26Z" fill="white"/>
<path d="M2.05718 347.689L22.9293 357.766L22.5705 361.156L0 367.126L0.382731 363.51L18.3258 359.157L18.3497 358.931L1.67445 351.305L2.05718 347.689Z" fill="white"/>
<path d="M37.7423 278.256C37.0485 280.18 35.9913 281.689 34.5708 282.782C33.1503 283.876 31.4985 284.537 29.6152 284.766C27.732 284.994 25.7538 284.775 23.6806 284.107C21.5714 283.427 19.8483 282.445 18.5111 281.159C17.1681 279.861 16.2903 278.375 15.8778 276.701C15.4595 275.016 15.5845 273.246 16.2526 271.393C16.773 269.95 17.5123 268.737 18.4707 267.753C19.4291 266.769 20.5284 266.064 21.7685 265.638C23.0085 265.212 24.3097 265.119 25.6719 265.359L24.5348 268.513C23.5016 268.449 22.4706 268.713 21.4418 269.306C20.4072 269.888 19.6393 270.873 19.1382 272.263C18.6949 273.492 18.6307 274.675 18.9456 275.81C19.2548 276.934 19.9021 277.943 20.8875 278.837C21.8672 279.719 23.1412 280.413 24.7096 280.918C26.314 281.435 27.801 281.636 29.1707 281.52C30.5436 281.396 31.7245 280.981 32.7133 280.275C33.7054 279.56 34.4263 278.58 34.876 277.332C35.1715 276.513 35.2955 275.723 35.248 274.962C35.2004 274.201 34.9898 273.501 34.616 272.864C34.2422 272.226 33.7121 271.688 33.0256 271.248L34.1627 268.094C35.3243 268.667 36.2695 269.464 36.9982 270.484C37.7211 271.493 38.1638 272.664 38.3264 273.999C38.4831 275.323 38.2884 276.741 37.7423 278.256Z" fill="white"/>
<path d="M48.4462 197.458L59.0095 197.578L54.1638 188.705L56.2768 185.471L61.8457 196.867L75.121 196.467L73.008 199.702L62.8372 199.811L67.2904 208.455L65.1773 211.689L59.5463 200.387L46.3331 200.692L48.4462 197.458Z" fill="white"/>
<path d="M112.496 145.959L110.617 144.224L107.831 124.819L107.664 124.665L99.0478 133.001L96.7518 130.881L108.471 119.543L110.433 121.354L113.381 140.445L113.548 140.599L122.491 131.947L124.787 134.067L112.496 145.959Z" fill="white"/>
<path d="M176.869 64.3825L182.268 86.6065L179.357 88.3797L160.176 74.5491L163.281 72.6576L178.219 83.8904L178.413 83.7722L173.763 66.274L176.869 64.3825Z" fill="white"/>
<path d="M242.868 29.7159L251.008 36.3508L252.759 26.3277L256.414 25.0756L253.655 37.5447L264.226 45.4471L260.571 46.6993L252.595 40.4888L250.681 50.0875L247.026 51.3396L249.677 38.9073L239.213 30.968L242.868 29.7159Z" fill="white"/>
<path d="M326.961 27.431L326.619 24.8972L336.783 7.64599L336.753 7.42077L324.851 8.85876L324.432 5.76196L340.621 3.80602L340.979 6.45238L331.138 23.5501L331.168 23.7753L343.521 22.2828L343.94 25.3796L326.961 27.431Z" fill="white"/>
</svg>
