<svg width="300" height="100" viewBox="0 0 300 100" fill="none" xmlns="http://www.w3.org/2000/svg">
<style>
.left path{animation:left 5s infinite linear;}
@keyframes left{
  0%{transform:translateX(0)}
  100%{transform:translateX(-100%)}
}
</style>

<rect width="300" height="100" fill="url(#paint0_linear_2_67)"/>
<mask id="mask0_2_67" style="mask-type:alpha" maskUnits="userSpaceOnUse" x="29" y="20" width="241" height="72">
<path d="M56 25.5L29.5 49V53.5L52.5 80L72.5 81.5L115.5 72.5C122.5 81.6667 139.8 86.5 143 90.5C146.2 94.5 167.667 80.1667 178 72.5L189 68.5L201 85.5H270L263 20.5L236.5 45L178 20.5L154.5 32.5L108 20.5L83.5 37L56 25.5Z" fill="#D9D9D9"/>
</mask>
<g class="left" mask="url(#mask0_2_67)">
<path d="M-200.72 70.9313C-203.238 70.9313 -205.523 70.457 -207.575 69.5085C-209.627 68.5427 -211.257 67.1544 -212.464 65.3436C-213.671 63.5156 -214.275 61.3081 -214.275 58.7212C-214.275 56.4447 -213.826 54.5994 -212.93 53.1853C-212.033 51.7539 -210.834 50.6329 -209.334 49.8223C-207.834 49.0118 -206.178 48.4082 -204.367 48.0115C-202.539 47.5976 -200.702 47.2699 -198.857 47.0285C-196.443 46.7181 -194.485 46.4853 -192.985 46.33C-191.467 46.1576 -190.363 45.873 -189.674 45.4764C-188.967 45.0797 -188.613 44.3899 -188.613 43.4069V43.1999C-188.613 40.6475 -189.311 38.6643 -190.708 37.2501C-192.088 35.8359 -194.183 35.1289 -196.995 35.1289C-199.909 35.1289 -202.194 35.767 -203.85 37.0431C-205.505 38.3193 -206.669 39.6818 -207.342 41.1304L-213.137 39.0609C-212.102 36.6465 -210.722 34.7667 -208.998 33.4215C-207.256 32.0591 -205.359 31.1106 -203.307 30.5759C-201.237 30.0241 -199.202 29.7481 -197.201 29.7481C-195.925 29.7481 -194.459 29.9034 -192.804 30.2138C-191.131 30.507 -189.518 31.1192 -187.966 32.0505C-186.397 32.9817 -185.095 34.3873 -184.06 36.2671C-183.025 38.1469 -182.508 40.6648 -182.508 43.8208V70H-188.613V64.6193H-188.923C-189.337 65.4816 -190.027 66.4042 -190.993 67.3873C-191.959 68.3703 -193.244 69.2067 -194.847 69.8965C-196.451 70.5864 -198.409 70.9313 -200.72 70.9313ZM-199.788 65.4471C-197.374 65.4471 -195.339 64.9728 -193.683 64.0243C-192.01 63.0758 -190.752 61.8513 -189.906 60.3509C-189.044 58.8505 -188.613 57.2725 -188.613 55.6169V50.0293C-188.872 50.3397 -189.441 50.6243 -190.32 50.883C-191.183 51.1244 -192.183 51.34 -193.321 51.5297C-194.442 51.7021 -195.537 51.8573 -196.607 51.9953C-197.658 52.116 -198.512 52.2195 -199.168 52.3057C-200.754 52.5127 -202.237 52.849 -203.617 53.3146C-204.979 53.763 -206.083 54.4442 -206.928 55.3583C-207.756 56.255 -208.17 57.4795 -208.17 59.0316C-208.17 61.1529 -207.385 62.7567 -205.816 63.8432C-204.229 64.9125 -202.22 65.4471 -199.788 65.4471ZM-171.365 70V30.2655H-165.467V36.2671H-165.053C-164.329 34.3011 -163.018 32.7058 -161.121 31.4814C-159.224 30.2569 -157.085 29.6447 -154.706 29.6447C-154.257 29.6447 -153.697 29.6533 -153.024 29.6705C-152.351 29.6878 -151.843 29.7137 -151.498 29.7481V35.9567C-151.705 35.9049 -152.179 35.8273 -152.921 35.7238C-153.645 35.6031 -154.412 35.5428 -155.223 35.5428C-157.154 35.5428 -158.879 35.948 -160.397 36.7586C-161.897 37.5519 -163.087 38.6556 -163.967 40.0698C-164.829 41.4667 -165.26 43.062 -165.26 44.8555V70H-171.365ZM-149.849 75.0993H-77.0021V2.25272H-149.849V75.0993ZM-55.2723 70.8278C-58.9974 70.8278 -62.2052 69.9483 -64.8955 68.1892C-67.5859 66.4301 -69.6554 64.0071 -71.104 60.9201C-72.5527 57.833 -73.277 54.3063 -73.277 50.3397C-73.277 46.3042 -72.5354 42.7429 -71.0523 39.6559C-69.5519 36.5516 -67.4651 34.1286 -64.792 32.3868C-62.1017 30.6277 -58.9629 29.7481 -55.3758 29.7481C-52.582 29.7481 -50.0641 30.2655 -47.8221 31.3003C-45.5801 32.335 -43.7435 33.7837 -42.312 35.6462C-40.8806 37.5088 -39.9925 39.6818 -39.6476 42.1652H-45.7526C-46.2182 40.3544 -47.253 38.7505 -48.8568 37.3536C-50.4435 35.9394 -52.582 35.2323 -55.2723 35.2323C-57.6522 35.2323 -59.739 35.8532 -61.5326 37.0949C-63.3089 38.3193 -64.6972 40.0526 -65.6974 42.2945C-66.6805 44.5192 -67.172 47.132 -67.172 50.1328C-67.172 53.2025 -66.6891 55.8756 -65.7233 58.1521C-64.7403 60.4285 -63.3606 62.1962 -61.5843 63.4552C-59.7907 64.7141 -57.6867 65.3436 -55.2723 65.3436C-53.6857 65.3436 -52.2457 65.0677 -50.9522 64.5158C-49.6588 63.9639 -48.5637 63.1706 -47.6669 62.1359C-46.7701 61.1011 -46.132 59.8594 -45.7526 58.4108H-39.6476C-39.9925 60.7562 -40.8461 62.8688 -42.2086 64.7486C-43.5537 66.6112 -45.3387 68.0943 -47.5634 69.1981C-49.7709 70.2846 -52.3405 70.8278 -55.2723 70.8278ZM-24.6178 46.0972V70H-30.7228V17.0207H-24.6178V36.474H-24.1004C-23.1691 34.4218 -21.7722 32.792 -19.9097 31.5848C-18.0299 30.3604 -15.5292 29.7481 -12.4077 29.7481C-9.70011 29.7481 -7.32881 30.2914 -5.29379 31.3779C-3.25878 32.4471 -1.68078 34.0941 -0.559802 36.3188C0.578425 38.5263 1.14754 41.3374 1.14754 44.7521V70H-4.9575V45.166C-4.9575 42.01 -5.77668 39.5697 -7.41504 37.8451C-9.03615 36.1032 -11.2867 35.2323 -14.1668 35.2323C-16.1673 35.2323 -17.9609 35.6549 -19.5475 36.4999C-21.1169 37.3449 -22.3586 38.578 -23.2726 40.1991C-24.1694 41.8203 -24.6178 43.7863 -24.6178 46.0972ZM24.0091 70.9313C21.4912 70.9313 19.2061 70.457 17.1539 69.5085C15.1016 68.5427 13.4719 67.1544 12.2647 65.3436C11.0574 63.5156 10.4538 61.3081 10.4538 58.7212C10.4538 56.4447 10.9022 54.5994 11.799 53.1853C12.6958 51.7539 13.8944 50.6329 15.3948 49.8223C16.8952 49.0118 18.5508 48.4082 20.3616 48.0115C22.1896 47.5976 24.0263 47.2699 25.8716 47.0285C28.2861 46.7181 30.2435 46.4853 31.7439 46.33C33.2615 46.1576 34.3652 45.873 35.0551 45.4764C35.7621 45.0797 36.1157 44.3899 36.1157 43.4069V43.1999C36.1157 40.6475 35.4172 38.6643 34.0203 37.2501C32.6406 35.8359 30.5453 35.1289 27.7342 35.1289C24.8196 35.1289 22.5346 35.767 20.879 37.0431C19.2234 38.3193 18.0593 39.6818 17.3867 41.1304L11.5921 39.0609C12.6268 36.6465 14.0065 34.7667 15.7311 33.4215C17.4729 32.0591 19.37 31.1106 21.4222 30.5759C23.4917 30.0241 25.5267 29.7481 27.5272 29.7481C28.8034 29.7481 30.2693 29.9034 31.9249 30.2138C33.5978 30.507 35.2103 31.1192 36.7624 32.0505C38.3318 32.9817 39.6338 34.3873 40.6686 36.2671C41.7033 38.1469 42.2207 40.6648 42.2207 43.8208V70H36.1157V64.6193H35.8053C35.3914 65.4816 34.7015 66.4042 33.7358 67.3873C32.77 68.3703 31.4852 69.2067 29.8813 69.8965C28.2774 70.5864 26.32 70.9313 24.0091 70.9313ZM24.9404 65.4471C27.3548 65.4471 29.3898 64.9728 31.0454 64.0243C32.7183 63.0758 33.9772 61.8513 34.8222 60.3509C35.6845 58.8505 36.1157 57.2725 36.1157 55.6169V50.0293C35.857 50.3397 35.2879 50.6243 34.4083 50.883C33.5461 51.1244 32.5458 51.34 31.4076 51.5297C30.2866 51.7021 29.1915 51.8573 28.1222 51.9953C27.0702 52.116 26.2166 52.2195 25.5612 52.3057C23.9746 52.5127 22.4915 52.849 21.1118 53.3146C19.7494 53.763 18.6456 54.4442 17.8006 55.3583C16.9728 56.255 16.5589 57.4795 16.5589 59.0316C16.5589 61.1529 17.3436 62.7567 18.9129 63.8432C20.4996 64.9125 22.5087 65.4471 24.9404 65.4471ZM53.3637 70V30.2655H59.2618V36.2671H59.6757C60.4 34.3011 61.7107 32.7058 63.6078 31.4814C65.5048 30.2569 67.6433 29.6447 70.0232 29.6447C70.4716 29.6447 71.0321 29.6533 71.7047 29.6705C72.3773 29.6878 72.886 29.7137 73.231 29.7481V35.9567C73.024 35.9049 72.5498 35.8273 71.8082 35.7238C71.0839 35.6031 70.3164 35.5428 69.5059 35.5428C67.5743 35.5428 65.8497 35.948 64.3321 36.7586C62.8317 37.5519 61.6417 38.6556 60.7622 40.0698C59.8999 41.4667 59.4688 43.062 59.4688 44.8555V70H53.3637ZM95.4005 70.8278C91.6754 70.8278 88.4677 69.9483 85.7773 68.1892C83.087 66.4301 81.0175 64.0071 79.5688 60.9201C78.1201 57.833 77.3958 54.3063 77.3958 50.3397C77.3958 46.3042 78.1374 42.7429 79.6205 39.6559C81.1209 36.5516 83.2077 34.1286 85.8808 32.3868C88.5711 30.6277 91.7099 29.7481 95.297 29.7481C98.0909 29.7481 100.609 30.2655 102.851 31.3003C105.093 32.335 106.929 33.7837 108.361 35.6462C109.792 37.5088 110.68 39.6818 111.025 42.1652H104.92C104.455 40.3544 103.42 38.7505 101.816 37.3536C100.229 35.9394 98.0909 35.2323 95.4005 35.2323C93.0206 35.2323 90.9338 35.8532 89.1403 37.0949C87.3639 38.3193 85.9756 40.0526 84.9754 42.2945C83.9924 44.5192 83.5009 47.132 83.5009 50.1328C83.5009 53.2025 83.9837 55.8756 84.9495 58.1521C85.9325 60.4285 87.3122 62.1962 89.0885 63.4552C90.8821 64.7141 92.9861 65.3436 95.4005 65.3436C96.9871 65.3436 98.4272 65.0677 99.7206 64.5158C101.014 63.9639 102.109 63.1706 103.006 62.1359C103.903 61.1011 104.541 59.8594 104.92 58.4108H111.025C110.68 60.7562 109.827 62.8688 108.464 64.7486C107.119 66.6112 105.334 68.0943 103.109 69.1981C100.902 70.2846 98.3323 70.8278 95.4005 70.8278ZM126.055 46.0972V70H119.95V17.0207H126.055V36.474H126.572C127.504 34.4218 128.901 32.792 130.763 31.5848C132.643 30.3604 135.144 29.7481 138.265 29.7481C140.973 29.7481 143.344 30.2914 145.379 31.3779C147.414 32.4471 148.992 34.0941 150.113 36.3188C151.251 38.5263 151.82 41.3374 151.82 44.7521V70H145.715V45.166C145.715 42.01 144.896 39.5697 143.258 37.8451C141.637 36.1032 139.386 35.2323 136.506 35.2323C134.506 35.2323 132.712 35.6549 131.125 36.4999C129.556 37.3449 128.314 38.578 127.4 40.1991C126.503 41.8203 126.055 43.7863 126.055 46.0972ZM174.682 70.9313C172.164 70.9313 169.879 70.457 167.827 69.5085C165.774 68.5427 164.145 67.1544 162.937 65.3436C161.73 63.5156 161.127 61.3081 161.127 58.7212C161.127 56.4447 161.575 54.5994 162.472 53.1853C163.369 51.7539 164.567 50.6329 166.068 49.8223C167.568 49.0118 169.224 48.4082 171.034 48.0115C172.862 47.5976 174.699 47.2699 176.544 47.0285C178.959 46.7181 180.916 46.4853 182.417 46.33C183.934 46.1576 185.038 45.873 185.728 45.4764C186.435 45.0797 186.789 44.3899 186.789 43.4069V43.1999C186.789 40.6475 186.09 38.6643 184.693 37.2501C183.313 35.8359 181.218 35.1289 178.407 35.1289C175.492 35.1289 173.207 35.767 171.552 37.0431C169.896 38.3193 168.732 39.6818 168.059 41.1304L162.265 39.0609C163.3 36.6465 164.679 34.7667 166.404 33.4215C168.146 32.0591 170.043 31.1106 172.095 30.5759C174.165 30.0241 176.2 29.7481 178.2 29.7481C179.476 29.7481 180.942 29.9034 182.598 30.2138C184.271 30.507 185.883 31.1192 187.435 32.0505C189.005 32.9817 190.307 34.3873 191.341 36.2671C192.376 38.1469 192.894 40.6648 192.894 43.8208V70H186.789V64.6193H186.478C186.064 65.4816 185.374 66.4042 184.409 67.3873C183.443 68.3703 182.158 69.2067 180.554 69.8965C178.95 70.5864 176.993 70.9313 174.682 70.9313ZM175.613 65.4471C178.028 65.4471 180.063 64.9728 181.718 64.0243C183.391 63.0758 184.65 61.8513 185.495 60.3509C186.357 58.8505 186.789 57.2725 186.789 55.6169V50.0293C186.53 50.3397 185.961 50.6243 185.081 50.883C184.219 51.1244 183.219 51.34 182.08 51.5297C180.959 51.7021 179.864 51.8573 178.795 51.9953C177.743 52.116 176.889 52.2195 176.234 52.3057C174.647 52.5127 173.164 52.849 171.785 53.3146C170.422 53.763 169.318 54.4442 168.473 55.3583C167.646 56.255 167.232 57.4795 167.232 59.0316C167.232 61.1529 168.016 62.7567 169.586 63.8432C171.172 64.9125 173.182 65.4471 175.613 65.4471ZM204.037 70V30.2655H209.935V36.2671H210.349C211.073 34.3011 212.384 32.7058 214.281 31.4814C216.178 30.2569 218.316 29.6447 220.696 29.6447C221.144 29.6447 221.705 29.6533 222.378 29.6705C223.05 29.6878 223.559 29.7137 223.904 29.7481V35.9567C223.697 35.9049 223.223 35.8273 222.481 35.7238C221.757 35.6031 220.989 35.5428 220.179 35.5428C218.247 35.5428 216.523 35.948 215.005 36.7586C213.505 37.5519 212.315 38.6556 211.435 40.0698C210.573 41.4667 210.142 43.062 210.142 44.8555V70H204.037ZM225.553 75.0993H298.399V2.25272H225.553V75.0993ZM320.129 70.8278C316.404 70.8278 313.196 69.9483 310.506 68.1892C307.816 66.4301 305.746 64.0071 304.298 60.9201C302.849 57.833 302.125 54.3063 302.125 50.3397C302.125 46.3042 302.866 42.7429 304.349 39.6559C305.85 36.5516 307.936 34.1286 310.61 32.3868C313.3 30.6277 316.439 29.7481 320.026 29.7481C322.82 29.7481 325.338 30.2655 327.579 31.3003C329.821 32.335 331.658 33.7837 333.09 35.6462C334.521 37.5088 335.409 39.6818 335.754 42.1652H329.649C329.183 40.3544 328.149 38.7505 326.545 37.3536C324.958 35.9394 322.82 35.2323 320.129 35.2323C317.749 35.2323 315.663 35.8532 313.869 37.0949C312.093 38.3193 310.704 40.0526 309.704 42.2945C308.721 44.5192 308.23 47.132 308.23 50.1328C308.23 53.2025 308.713 55.8756 309.678 58.1521C310.661 60.4285 312.041 62.1962 313.817 63.4552C315.611 64.7141 317.715 65.3436 320.129 65.3436C321.716 65.3436 323.156 65.0677 324.449 64.5158C325.743 63.9639 326.838 63.1706 327.735 62.1359C328.631 61.1011 329.27 59.8594 329.649 58.4108H335.754C335.409 60.7562 334.555 62.8688 333.193 64.7486C331.848 66.6112 330.063 68.0943 327.838 69.1981C325.631 70.2846 323.061 70.8278 320.129 70.8278ZM350.784 46.0972V70H344.679V17.0207H350.784V36.474H351.301C352.232 34.4218 353.629 32.792 355.492 31.5848C357.372 30.3604 359.872 29.7481 362.994 29.7481C365.701 29.7481 368.073 30.2914 370.108 31.3779C372.143 32.4471 373.721 34.0941 374.842 36.3188C375.98 38.5263 376.549 41.3374 376.549 44.7521V70H370.444V45.166C370.444 42.01 369.625 39.5697 367.987 37.8451C366.365 36.1032 364.115 35.2323 361.235 35.2323C359.234 35.2323 357.441 35.6549 355.854 36.4999C354.285 37.3449 353.043 38.578 352.129 40.1991C351.232 41.8203 350.784 43.7863 350.784 46.0972ZM399.411 70.9313C396.893 70.9313 394.608 70.457 392.555 69.5085C390.503 68.5427 388.873 67.1544 387.666 65.3436C386.459 63.5156 385.855 61.3081 385.855 58.7212C385.855 56.4447 386.304 54.5994 387.201 53.1853C388.097 51.7539 389.296 50.6329 390.796 49.8223C392.297 49.0118 393.952 48.4082 395.763 48.0115C397.591 47.5976 399.428 47.2699 401.273 47.0285C403.688 46.7181 405.645 46.4853 407.145 46.33C408.663 46.1576 409.767 45.873 410.457 45.4764C411.164 45.0797 411.517 44.3899 411.517 43.4069V43.1999C411.517 40.6475 410.819 38.6643 409.422 37.2501C408.042 35.8359 405.947 35.1289 403.136 35.1289C400.221 35.1289 397.936 35.767 396.281 37.0431C394.625 38.3193 393.461 39.6818 392.788 41.1304L386.994 39.0609C388.028 36.6465 389.408 34.7667 391.133 33.4215C392.874 32.0591 394.772 31.1106 396.824 30.5759C398.893 30.0241 400.928 29.7481 402.929 29.7481C404.205 29.7481 405.671 29.9034 407.327 30.2138C408.999 30.507 410.612 31.1192 412.164 32.0505C413.733 32.9817 415.035 34.3873 416.07 36.2671C417.105 38.1469 417.622 40.6648 417.622 43.8208V70H411.517V64.6193H411.207C410.793 65.4816 410.103 66.4042 409.137 67.3873C408.172 68.3703 406.887 69.2067 405.283 69.8965C403.679 70.5864 401.722 70.9313 399.411 70.9313ZM400.342 65.4471C402.756 65.4471 404.791 64.9728 406.447 64.0243C408.12 63.0758 409.379 61.8513 410.224 60.3509C411.086 58.8505 411.517 57.2725 411.517 55.6169V50.0293C411.259 50.3397 410.689 50.6243 409.81 50.883C408.948 51.1244 407.947 51.34 406.809 51.5297C405.688 51.7021 404.593 51.8573 403.524 51.9953C402.472 52.116 401.618 52.2195 400.963 52.3057C399.376 52.5127 397.893 52.849 396.513 53.3146C395.151 53.763 394.047 54.4442 393.202 55.3583C392.374 56.255 391.96 57.4795 391.96 59.0316C391.96 61.1529 392.745 62.7567 394.315 63.8432C395.901 64.9125 397.91 65.4471 400.342 65.4471ZM428.765 70V30.2655H434.663V36.2671H435.077C435.802 34.3011 437.112 32.7058 439.009 31.4814C440.906 30.2569 443.045 29.6447 445.425 29.6447C445.873 29.6447 446.434 29.6533 447.106 29.6705C447.779 29.6878 448.288 29.7137 448.633 29.7481V35.9567C448.426 35.9049 447.951 35.8273 447.21 35.7238C446.485 35.6031 445.718 35.5428 444.907 35.5428C442.976 35.5428 441.251 35.948 439.734 36.7586C438.233 37.5519 437.043 38.6556 436.164 40.0698C435.301 41.4667 434.87 43.062 434.87 44.8555V70H428.765ZM470.802 70.8278C467.077 70.8278 463.869 69.9483 461.179 68.1892C458.489 66.4301 456.419 64.0071 454.97 60.9201C453.522 57.833 452.797 54.3063 452.797 50.3397C452.797 46.3042 453.539 42.7429 455.022 39.6559C456.522 36.5516 458.609 34.1286 461.282 32.3868C463.973 30.6277 467.111 29.7481 470.699 29.7481C473.492 29.7481 476.01 30.2655 478.252 31.3003C480.494 32.335 482.331 33.7837 483.762 35.6462C485.194 37.5088 486.082 39.6818 486.427 42.1652H480.322C479.856 40.3544 478.821 38.7505 477.218 37.3536C475.631 35.9394 473.492 35.2323 470.802 35.2323C468.422 35.2323 466.335 35.8532 464.542 37.0949C462.765 38.3193 461.377 40.0526 460.377 42.2945C459.394 44.5192 458.902 47.132 458.902 50.1328C458.902 53.2025 459.385 55.8756 460.351 58.1521C461.334 60.4285 462.714 62.1962 464.49 63.4552C466.284 64.7141 468.388 65.3436 470.802 65.3436C472.389 65.3436 473.829 65.0677 475.122 64.5158C476.416 63.9639 477.511 63.1706 478.407 62.1359C479.304 61.1011 479.942 59.8594 480.322 58.4108H486.427C486.082 60.7562 485.228 62.8688 483.866 64.7486C482.521 66.6112 480.736 68.0943 478.511 69.1981C476.303 70.2846 473.734 70.8278 470.802 70.8278ZM501.457 46.0972V70H495.352V17.0207H501.457V36.474H501.974C502.905 34.4218 504.302 32.792 506.165 31.5848C508.045 30.3604 510.545 29.7481 513.667 29.7481C516.374 29.7481 518.746 30.2914 520.781 31.3779C522.816 32.4471 524.394 34.0941 525.515 36.3188C526.653 38.5263 527.222 41.3374 527.222 44.7521V70H521.117V45.166C521.117 42.01 520.298 39.5697 518.659 37.8451C517.038 36.1032 514.788 35.2323 511.908 35.2323C509.907 35.2323 508.114 35.6549 506.527 36.4999C504.958 37.3449 503.716 38.578 502.802 40.1991C501.905 41.8203 501.457 43.7863 501.457 46.0972ZM550.083 70.9313C547.566 70.9313 545.28 70.457 543.228 69.5085C541.176 68.5427 539.546 67.1544 538.339 65.3436C537.132 63.5156 536.528 61.3081 536.528 58.7212C536.528 56.4447 536.977 54.5994 537.873 53.1853C538.77 51.7539 539.969 50.6329 541.469 49.8223C542.97 49.0118 544.625 48.4082 546.436 48.0115C548.264 47.5976 550.101 47.2699 551.946 47.0285C554.36 46.7181 556.318 46.4853 557.818 46.33C559.336 46.1576 560.44 45.873 561.129 45.4764C561.837 45.0797 562.19 44.3899 562.19 43.4069V43.1999C562.19 40.6475 561.492 38.6643 560.095 37.2501C558.715 35.8359 556.62 35.1289 553.809 35.1289C550.894 35.1289 548.609 35.767 546.953 37.0431C545.298 38.3193 544.134 39.6818 543.461 41.1304L537.666 39.0609C538.701 36.6465 540.081 34.7667 541.805 33.4215C543.547 32.0591 545.444 31.1106 547.497 30.5759C549.566 30.0241 551.601 29.7481 553.602 29.7481C554.878 29.7481 556.344 29.9034 557.999 30.2138C559.672 30.507 561.285 31.1192 562.837 32.0505C564.406 32.9817 565.708 34.3873 566.743 36.2671C567.778 38.1469 568.295 40.6648 568.295 43.8208V70H562.19V64.6193H561.88C561.466 65.4816 560.776 66.4042 559.81 67.3873C558.844 68.3703 557.56 69.2067 555.956 69.8965C554.352 70.5864 552.394 70.9313 550.083 70.9313ZM551.015 65.4471C553.429 65.4471 555.464 64.9728 557.12 64.0243C558.793 63.0758 560.052 61.8513 560.897 60.3509C561.759 58.8505 562.19 57.2725 562.19 55.6169V50.0293C561.931 50.3397 561.362 50.6243 560.483 50.883C559.62 51.1244 558.62 51.34 557.482 51.5297C556.361 51.7021 555.266 51.8573 554.197 51.9953C553.145 52.116 552.291 52.2195 551.636 52.3057C550.049 52.5127 548.566 52.849 547.186 53.3146C545.824 53.763 544.72 54.4442 543.875 55.3583C543.047 56.255 542.633 57.4795 542.633 59.0316C542.633 61.1529 543.418 62.7567 544.987 63.8432C546.574 64.9125 548.583 65.4471 551.015 65.4471ZM573.85 75.0993H646.697V2.25272H573.85V75.0993ZM652.285 70V30.2655H658.183V36.2671H658.597C659.321 34.3011 660.632 32.7058 662.529 31.4814C664.426 30.2569 666.564 29.6447 668.944 29.6447C669.393 29.6447 669.953 29.6533 670.626 29.6705C671.298 29.6878 671.807 29.7137 672.152 29.7481V35.9567C671.945 35.9049 671.471 35.8273 670.729 35.7238C670.005 35.6031 669.237 35.5428 668.427 35.5428C666.495 35.5428 664.771 35.948 663.253 36.7586C661.753 37.5519 660.563 38.6556 659.683 40.0698C658.821 41.4667 658.39 43.062 658.39 44.8555V70H652.285ZM694.321 70.8278C690.596 70.8278 687.389 69.9483 684.698 68.1892C682.008 66.4301 679.938 64.0071 678.49 60.9201C677.041 57.833 676.317 54.3063 676.317 50.3397C676.317 46.3042 677.058 42.7429 678.541 39.6559C680.042 36.5516 682.129 34.1286 684.802 32.3868C687.492 30.6277 690.631 29.7481 694.218 29.7481C697.012 29.7481 699.53 30.2655 701.772 31.3003C704.014 32.335 705.85 33.7837 707.282 35.6462C708.713 37.5088 709.601 39.6818 709.946 42.1652H703.841C703.376 40.3544 702.341 38.7505 700.737 37.3536C699.15 35.9394 697.012 35.2323 694.321 35.2323C691.942 35.2323 689.855 35.8532 688.061 37.0949C686.285 38.3193 684.897 40.0526 683.896 42.2945C682.913 44.5192 682.422 47.132 682.422 50.1328C682.422 53.2025 682.905 55.8756 683.87 58.1521C684.853 60.4285 686.233 62.1962 688.009 63.4552C689.803 64.7141 691.907 65.3436 694.321 65.3436C695.908 65.3436 697.348 65.0677 698.642 64.5158C699.935 63.9639 701.03 63.1706 701.927 62.1359C702.824 61.1011 703.462 59.8594 703.841 58.4108H709.946C709.601 60.7562 708.748 62.8688 707.385 64.7486C706.04 66.6112 704.255 68.0943 702.03 69.1981C699.823 70.2846 697.253 70.8278 694.321 70.8278ZM724.976 46.0972V70H718.871V17.0207H724.976V36.474H725.493C726.425 34.4218 727.822 32.792 729.684 31.5848C731.564 30.3604 734.065 29.7481 737.186 29.7481C739.894 29.7481 742.265 30.2914 744.3 31.3779C746.335 32.4471 747.913 34.0941 749.034 36.3188C750.172 38.5263 750.741 41.3374 750.741 44.7521V70H744.636V45.166C744.636 42.01 743.817 39.5697 742.179 37.8451C740.558 36.1032 738.307 35.2323 735.427 35.2323C733.426 35.2323 731.633 35.6549 730.046 36.4999C728.477 37.3449 727.235 38.578 726.321 40.1991C725.424 41.8203 724.976 43.7863 724.976 46.0972ZM773.603 70.9313C771.085 70.9313 768.8 70.457 766.748 69.5085C764.695 68.5427 763.066 67.1544 761.858 65.3436C760.651 63.5156 760.048 61.3081 760.048 58.7212C760.048 56.4447 760.496 54.5994 761.393 53.1853C762.29 51.7539 763.488 50.6329 764.989 49.8223C766.489 49.0118 768.145 48.4082 769.955 48.0115C771.783 47.5976 773.62 47.2699 775.465 47.0285C777.88 46.7181 779.837 46.4853 781.338 46.33C782.855 46.1576 783.959 45.873 784.649 45.4764C785.356 45.0797 785.709 44.3899 785.709 43.4069V43.1999C785.709 40.6475 785.011 38.6643 783.614 37.2501C782.234 35.8359 780.139 35.1289 777.328 35.1289C774.413 35.1289 772.128 35.767 770.473 37.0431C768.817 38.3193 767.653 39.6818 766.98 41.1304L761.186 39.0609C762.221 36.6465 763.6 34.7667 765.325 33.4215C767.067 32.0591 768.964 31.1106 771.016 30.5759C773.085 30.0241 775.121 29.7481 777.121 29.7481C778.397 29.7481 779.863 29.9034 781.519 30.2138C783.192 30.507 784.804 31.1192 786.356 32.0505C787.926 32.9817 789.228 34.3873 790.262 36.2671C791.297 38.1469 791.815 40.6648 791.815 43.8208V70H785.709V64.6193H785.399C784.985 65.4816 784.295 66.4042 783.33 67.3873C782.364 68.3703 781.079 69.2067 779.475 69.8965C777.871 70.5864 775.914 70.9313 773.603 70.9313ZM774.534 65.4471C776.949 65.4471 778.984 64.9728 780.639 64.0243C782.312 63.0758 783.571 61.8513 784.416 60.3509C785.278 58.8505 785.709 57.2725 785.709 55.6169V50.0293C785.451 50.3397 784.882 50.6243 784.002 50.883C783.14 51.1244 782.14 51.34 781.001 51.5297C779.88 51.7021 778.785 51.8573 777.716 51.9953C776.664 52.116 775.81 52.2195 775.155 52.3057C773.568 52.5127 772.085 52.849 770.706 53.3146C769.343 53.763 768.239 54.4442 767.394 55.3583C766.567 56.255 766.153 57.4795 766.153 59.0316C766.153 61.1529 766.937 62.7567 768.507 63.8432C770.093 64.9125 772.102 65.4471 774.534 65.4471ZM802.957 70V30.2655H808.856V36.2671H809.269C809.994 34.3011 811.304 32.7058 813.202 31.4814C815.099 30.2569 817.237 29.6447 819.617 29.6447C820.065 29.6447 820.626 29.6533 821.298 29.6705C821.971 29.6878 822.48 29.7137 822.825 29.7481V35.9567C822.618 35.9049 822.144 35.8273 821.402 35.7238C820.678 35.6031 819.91 35.5428 819.1 35.5428C817.168 35.5428 815.443 35.948 813.926 36.7586C812.425 37.5519 811.235 38.6556 810.356 40.0698C809.494 41.4667 809.063 43.062 809.063 44.8555V70H802.957ZM844.994 70.8278C841.269 70.8278 838.061 69.9483 835.371 68.1892C832.681 66.4301 830.611 64.0071 829.163 60.9201C827.714 57.833 826.99 54.3063 826.99 50.3397C826.99 46.3042 827.731 42.7429 829.214 39.6559C830.715 36.5516 832.801 34.1286 835.475 32.3868C838.165 30.6277 841.304 29.7481 844.891 29.7481C847.685 29.7481 850.203 30.2655 852.445 31.3003C854.686 32.335 856.523 33.7837 857.955 35.6462C859.386 37.5088 860.274 39.6818 860.619 42.1652H854.514C854.048 40.3544 853.014 38.7505 851.41 37.3536C849.823 35.9394 847.685 35.2323 844.994 35.2323C842.614 35.2323 840.528 35.8532 838.734 37.0949C836.958 38.3193 835.569 40.0526 834.569 42.2945C833.586 44.5192 833.095 47.132 833.095 50.1328C833.095 53.2025 833.578 55.8756 834.543 58.1521C835.526 60.4285 836.906 62.1962 838.682 63.4552C840.476 64.7141 842.58 65.3436 844.994 65.3436C846.581 65.3436 848.021 65.0677 849.314 64.5158C850.608 63.9639 851.703 63.1706 852.6 62.1359C853.497 61.1011 854.135 59.8594 854.514 58.4108H860.619C860.274 60.7562 859.42 62.8688 858.058 64.7486C856.713 66.6112 854.928 68.0943 852.703 69.1981C850.496 70.2846 847.926 70.8278 844.994 70.8278ZM875.649 46.0972V70H869.544V17.0207H875.649V36.474H876.166C877.097 34.4218 878.494 32.792 880.357 31.5848C882.237 30.3604 884.737 29.7481 887.859 29.7481C890.566 29.7481 892.938 30.2914 894.973 31.3779C897.008 32.4471 898.586 34.0941 899.707 36.3188C900.845 38.5263 901.414 41.3374 901.414 44.7521V70H895.309V45.166C895.309 42.01 894.49 39.5697 892.852 37.8451C891.23 36.1032 888.98 35.2323 886.1 35.2323C884.099 35.2323 882.306 35.6549 880.719 36.4999C879.15 37.3449 877.908 38.578 876.994 40.1991C876.097 41.8203 875.649 43.7863 875.649 46.0972ZM906.995 75.0993H979.842V2.25272H906.995V75.0993Z" fill="black"/>
</g>
<defs>
<linearGradient id="paint0_linear_2_67" x1="0" y1="50" x2="300" y2="50" gradientUnits="userSpaceOnUse">
<stop stop-color="#D640FF"/>
<stop offset="1" stop-color="#999326"/>
</linearGradient>
</defs>
</svg>
